PathFileType	4	(X/Y/Z)	C:/Users/beibeiliu/ov580/test_trc/User2\sequence.18_training_dense_left.trc
DataRate	CameraRate	NumFrames	NumMarkers	Units	OrigDataRate	OrigDataStartFrame	OrigNumFrames
120	120	21	19	mm	120	29	57
Frame#	Time	ThumbCMC			ThumbMCP			ThumbIP			ThumbTip			IndexMCP			IndexPIP			IndexTip			MiddleMCP			MiddlePIP			MiddleTip			RingMCP			RingPIP			RingTip			PinkyMCP			PinkyPIP			PinkyTip			BackHand1			BackHand2			BackHand3	
		X0	Y0	Z0	X1	Y1	Z1	X2	Y2	Z2	X3	Y3	Z3	X4	Y4	Z4	X5	Y5	Z5	X6	Y6	Z6	X7	Y7	Z7	X8	Y8	Z8	X9	Y9	Z9	X10	Y10	Z10	X11	Y11	Z11	X12	Y12	Z12	X13	Y13	Z13	X14	Y14	Z14	X15	Y15	Z15	X16	Y16	Z16	X17	Y17	Z17	X18	Y18	Z18	
28	0.233333	-239.589	2.90198	-14.0929	-238.816	-6.00521	-47.822	-267.355	-16.7273	-72.1942	-293.506	-26.1361	-64.6292	-274.213	40.0145	-73.48	-275.792	51.1699	-97.5796	-279.815	62.9386	-128.183	-299.26	36.9936	-69.2905	-309.054	54.3221	-99.3963	-318.309	63.0639	-124.833	-321.704	21.8445	-62.9841	-331.253	35.1938	-86.4146	-338.984	43.1516	-111.139	-330.234	-3.79016	-43.0534	-350.471	7.01691	-62.6103	-364.844	17.3536	-81.5447	-311.258	5.78624	-16.9443	-301.571	4.75781	19.5173	-277.144	23.3528	-4.78644	
29	0.241667	-233.115	-9.40178	-10.3119	-237.09	-14.6505	-47.5381	-264.226	-18.1238	-74.8063	-296.805	-18.674	-65.5206	-256.422	36.5051	-71.6919	-250.904	48.651	-97.6468	-248.277	59.8228	-126.622	-284.425	44.9107	-70.6779	-285.985	60.0894	-98.5878	-289.243	75.5127	-128.559	-305.457	34.4362	-62.3528	-312.672	48.145	-85.8371	-320.764	59.3387	-110.404	-321.426	14.2598	-44.07	-337.944	30.843	-62.8089	-348.049	43.7607	-82.0307	-294.487	16.9731	-12.6701	-289.879	13.9923	17.3052	-260.138	23.6848	-4.30412	
30	0.25	-229.286	-13.9993	-9.91825	-229.243	-22.4387	-47.843	-258.651	-22.8417	-66.1281	-288.905	-15.6914	-59.0761	-234.789	30.67	-74.9726	-234.619	38.316	-97.2598	-231.178	48.7469	-128.971	-266.186	41.1113	-69.7175	-266.099	57.1686	-100.131	-268.033	68.9263	-127.686	-289.25	39.4113	-63.6533	-296.036	51.5507	-88.191	-294.44	60.7825	-115.814	-311.401	23.5969	-45.0227	-322.546	36.2509	-63.0862	-331.13	54.6999	-84.5109	-286.156	24.7293	-13.6085	-278.946	19.8006	19.8232	-248.092	22.3308	-4.55692	
31	0.258333	-216.181	-21.0364	-3.27916	-217.096	-33.7739	-42.672	-245.655	-30.3195	-62.2489	-276.755	-20.0889	-60.7628	-221.038	20.6895	-73.7295	-213.043	24.7814	-96.9572	-208.703	31.2814	-126.441	-244.771	34.8253	-74.2234	-243.332	44.7937	-103.687	-241.478	55.5136	-133.547	-273.94	32.7922	-62.878	-274.37	42.1174	-87.4632	-275.115	50.5655	-118.812	-297.456	20.8003	-43.508	-307.481	35.1429	-67.1858	-311.479	45.9207	-85.829	-268.731	23.7269	-12.037	-261.969	19.9117	21.232	-229.09	16.0312	-4.78573	
32	0.266667	-202.589	-26.5467	1.67037	-201.752	-42.8453	-32.6624	-229.96	-45.2757	-58.9422	-259.459	-34.3834	-52.85	-204.978	4.34408	-66.8266	-199.26	8.82624	-96.4725	-195.336	12.5558	-125.145	-233.297	16.7921	-73.0481	-230.164	23.7954	-104.365	-227.274	27.2284	-136.556	-256.832	16.8604	-65.2892	-261.136	22.6074	-90.7806	-261.444	23.962	-121.739	-285.246	7.10189	-47.2693	-289.42	13.8733	-73.4387	-296.825	21.7397	-97.8546	-257.26	15.1962	-13.6976	-250.596	15.4157	20.7529	-222.808	9.94922	-1.48448	
33	0.275	-187.553	-27.5195	9.12747	-185.415	-49.4795	-24.3427	-214.602	-60.7208	-50.4798	-241.58	-57.0584	-44.8168	-199.965	-11.7379	-67.3852	-192.627	-10.9303	-95.0777	-185.894	-12.523	-123.769	-223.889	-7.61397	-76.718	-223.337	-8.17443	-105.972	-221.234	-10.2088	-135.948	-249.26	-10.8232	-69.0154	-253.356	-12.4269	-93.6525	-253.406	-18.4594	-125.935	-275.951	-21.2201	-51.3131	-279.102	-24.5011	-76.2341	-287.637	-23.5642	-98.5358	-248.23	-1.69007	-15.4444	-247.317	6.87732	14.3055	-216.419	4.64809	-3.72307	
34	0.283333	-184.11	-14.7919	9.93183	-167.469	-43.9674	-14.177	-186.213	-71.1369	-31.8953	-216.469	-78.2498	-28.5851	-192.956	-26.6439	-66.4464	-185.1	-33.8531	-97.4702	-180.305	-39.0802	-119.241	-217.695	-39.6369	-77.2144	-216.002	-51.4917	-105.006	-212.803	-60.8096	-134.701	-241.738	-52.7564	-64.4547	-238.323	-63.3693	-90.3749	-237.612	-77.7314	-116.609	-257.561	-65.5047	-38.9864	-259.422	-77.949	-66.2583	-263.052	-84.8805	-88.079	-246.156	-25.0326	-16.9592	-252.201	-7.67032	12.6826	-221.994	-3.05986	-9.75698	
35	0.291667	-191.57	-0.525255	4.21821	-167.608	-29.2151	-15.4246	-172.687	-62.5789	-23.9029	-196.318	-80.7409	-18.7947	-193.869	-28.7906	-71.7964	-180.228	-36.2567	-99.1234	-173.503	-46.2479	-119.051	-215.174	-56.7589	-76.1488	-204.583	-68.4473	-101.691	-198.411	-81.1793	-128.038	-229.489	-74.2129	-59.8535	-222.684	-89.0968	-83.3643	-214.718	-103.966	-103.717	-239.543	-88.1797	-36.7075	-235.638	-105.263	-55.1029	-237.369	-118.956	-69.7973	-247.428	-42.5772	-20.3221	-260.503	-22.8321	5.22328	-231.634	-8.38708	-15.0046	
36	0.3	-211.881	15.4194	-4.84036	-178.99	-3.77346	-20.1724	-168.995	-37.1853	-24.7425	-180.798	-67.5214	-20.0796	-201.745	-25.0724	-75.6259	-189.34	-29.3665	-97.6873	-175.706	-38.1396	-121.363	-211.656	-52.2525	-74.2146	-198.248	-62.6089	-98.6518	-186.779	-80.9328	-122.283	-217.303	-73.5857	-55.0054	-206.028	-87.4578	-74.6656	-189.75	-104.127	-100.5	-218.053	-87.6725	-31.5885	-208.423	-104.629	-46.1285	-205.098	-125.057	-60.5039	-246.219	-48.7672	-16.2009	-264.743	-32.6159	2.21221	-245.312	-10.8446	-20.4984	
37	0.308333	-235.656	25.7504	-10.344	-199.131	22.3864	-26.4194	-176.186	-2.95851	-27.9944	-174.128	-34.6123	-20.928	-208.321	-9.60694	-81.0118	-195.012	-9.34881	-102.968	-179.088	-10.1529	-125.17	-207.615	-39.3378	-71.6114	-189.533	-46.8114	-97.5465	-171.254	-58.0079	-119.689	-203.808	-60.1712	-52.4908	-185.854	-68.9202	-75.8135	-165.719	-83.3734	-94.7988	-202.271	-69.7708	-22.8198	-184.198	-85.3218	-36.6654	-174.736	-97.5392	-52.6659	-242.558	-39.9457	-16.1302	-264.868	-38.722	5.11574	-256.009	-7.6583	-25.7507	
38	0.316667	-255.318	31.0499	-11.4566	-219.977	45.5957	-29.6064	-187.565	25.3948	-32.7859	-179.734	0.301104	-19.7582	-219.419	8.76215	-78.4167	-205.238	15.8461	-104.724	-187.166	14.6823	-125.858	-206.643	-15.4767	-74.5564	-183.669	-19.7177	-98.3132	-160.457	-24.4537	-122.128	-193.596	-34.2521	-56.0798	-173.948	-39.6763	-73.5046	-152.16	-43.7024	-92.1763	-185.91	-43.6477	-25.9036	-165.576	-53.0142	-35.1462	-148.342	-66.4766	-51.1952	-234.688	-33.0806	-14.7044	-260.204	-32.6637	2.60559	-263.114	-6.22963	-26.2211	
39	0.325	-267.452	30.235	-11.9702	-241.351	51.5301	-29.8436	-201.764	41.3795	-36.9322	-187.327	15.0124	-23.1454	-227.013	17.5316	-84.7661	-218.602	24.2698	-104.814	-201.879	31.2262	-131.098	-205.039	-4.86969	-78.2017	-185.686	0.414037	-102.634	-166.065	2.1549	-122.219	-192.622	-15.432	-58.5613	-170.126	-15.6244	-76.9755	-147.051	-14.5244	-97.1755	-178.117	-22.6103	-29.5172	-156.838	-23.6598	-40.715	-136.615	-28.6346	-55.552	-232.732	-25.1891	-18.6777	-251.832	-32.5401	4.76523	-266.409	-6.61547	-24.0643	
40	0.333333	-280.096	33.2316	-15.3418	-256.594	54.0128	-36.346	-219.6	52.9795	-46.9187	-197.567	31.8772	-34.5416	-242.557	18.946	-88.8018	-237.414	28.2997	-112.241	-224.492	34.0583	-135.999	-217.441	4.29406	-83.6526	-202.787	10.9182	-109.372	-187.835	19.8697	-136.434	-197.169	-4.20345	-64.7338	-181.241	-0.0759759	-86.0576	-161.93	8.31196	-111.043	-184.799	-4.53813	-37.6776	-161.559	-1.34502	-49.8877	-145.631	-2.42947	-68.8094	-227.562	-19.2721	-22.0796	-248.448	-28.4119	4.22008	-267.407	-9.63976	-23.4383	
41	0.341667	-289.58	31.5242	-12.9937	-273.293	55.3952	-36.1707	-235.399	57.5323	-57.0847	-213.617	38.2731	-44.9845	-264.942	16.635	-87.5219	-263.278	21.5316	-113.103	-254.51	27.5258	-140.434	-235.139	3.84089	-90.197	-226.884	9.48884	-118.842	-212.091	15.1571	-146.818	-210.745	-0.735952	-72.6566	-201.291	5.197	-97.9791	-188.207	12.5682	-124.669	-189.87	2.92072	-48.1988	-173.456	9.17655	-66.3137	-155.928	7.84595	-85.8393	-234.879	-13.6704	-24.8572	-249.807	-22.1706	3.19339	-275.077	-7.70246	-20.1454	
42	0.35	-291.284	31.1514	-11.3607	-283.909	54.0951	-41.181	-249.478	50.8211	-61.2966	-227.012	38.5056	-54.6815	-284.969	8.90506	-84.4127	-285.905	11.2395	-115.272	-284.365	14.956	-145.156	-254.317	-3.73762	-92.7181	-248.842	-3.16212	-122.442	-244.916	1.47896	-156.007	-227.008	-5.59546	-78.0794	-216.521	-4.93493	-106.204	-212.131	0.289367	-134.428	-202.124	0.486009	-57.7864	-189.317	4.20088	-79.7611	-177.893	2.17212	-100.497	-243.079	-14.4466	-23.9642	-250.366	-20.5943	6.08394	-279.426	-8.23885	-15.5574	
43	0.358333	-298.564	29.5141	-7.68022	-291.458	45.67	-40.3505	-266.449	45.2935	-66.4545	-237.333	27.4934	-63.9978	-297.776	-4.39604	-81.5527	-308.947	-4.77727	-105.569	-309.566	-5.32337	-134.741	-271.784	-16.7342	-85.8626	-276.527	-20.308	-121.234	-272.005	-20.707	-150.945	-246.352	-18.6606	-82.3066	-241.582	-21.7179	-105.774	-235.719	-21.4153	-137.455	-219.875	-11.0407	-66.3307	-207.31	-11.2327	-86.6314	-199.599	-15.5895	-106.8	-253.429	-19.2851	-26.5931	-252.342	-23.9273	7.90832	-288.396	-10.596	-10.2129	
44	0.366667	-302.036	25.7969	-4.02044	-302.193	41.9805	-43.0291	-278.388	32.476	-75.2965	-254.245	16.2356	-68.6737	-317.487	-12.6468	-72.412	-328.087	-18.9821	-97.1795	-333.246	-22.0667	-129.189	-294.695	-27.7442	-79.1037	-298.11	-36.5494	-110.532	-302.228	-41.1861	-144.553	-265.226	-33.6477	-80.1718	-264.861	-39.5191	-102.65	-263.111	-43.043	-135.25	-237.394	-24.0772	-63.3247	-225.752	-30.8828	-90.9299	-222.705	-38.4045	-114.51	-264.772	-25.4655	-22.6423	-265.912	-25.393	8.81698	-299.966	-14.8807	-8.82423	
45	0.375	-310.297	27.8888	-7.18617	-308.917	38.2202	-45.7732	-289.68	28.4668	-72.7705	-268.109	10.9519	-76.5763	-334.81	-16.4433	-67.4992	-349.165	-23.093	-93.0551	-356.091	-27.6808	-121.181	-314.829	-35.1903	-77.2346	-320.742	-47.0657	-108.647	-328.04	-53.689	-135.606	-288.525	-40.4799	-74.1452	-288.432	-49.8199	-98.5457	-290.286	-57.5149	-132.628	-254.172	-38.0541	-66.2087	-245.863	-46.4526	-87.8489	-245.28	-56.8861	-108.235	-275.248	-31.0674	-20.7551	-276.736	-27.7366	12.5742	-308.755	-13.5047	-3.75633	
46	0.383333	-315.323	32.2505	-11.6237	-312.227	41.9382	-49.7411	-295.837	24.2176	-77.2115	-275.413	0.139398	-73.6161	-347.013	-11.4787	-64.1411	-361.28	-19.0751	-86.7734	-369.886	-26.1817	-116.255	-332.911	-33.8175	-72.3699	-344.541	-46.5121	-102.232	-350.836	-56.1985	-128.159	-301.097	-47.0051	-69.0791	-310.635	-56.3195	-94.0153	-312.337	-66.4996	-122.7	-271.94	-47.491	-63.2528	-270.169	-56.8843	-81.7654	-268.443	-70.1019	-103.924	-292.479	-30.5442	-20.771	-285.143	-25.7998	12.8909	-318.445	-7.32949	-3.34685	
47	0.391667	-309.742	41.3947	-13.6438	-304.531	42.327	-50.4466	-294.523	20.5633	-82.7652	-279.438	-6.58336	-78.1412	-354.802	-0.101384	-66.5236	-368.424	-1.5862	-86.267	-382.618	-7.6477	-113.312	-341.364	-26.1369	-67.0686	-356.213	-39.4415	-95.2579	-370.179	-47.3323	-122.621	-318.947	-45.6279	-67.6801	-328.31	-54.1504	-88.6769	-335.285	-66.2447	-117.136	-288.976	-48.0954	-56.0511	-289.813	-66.4115	-77.6065	-294.152	-80.9674	-99.5915	-299.491	-26.3068	-16.3023	-297.589	-21.6741	12.5399	-323.709	1.58876	-2.19454	
48	0.4	-296.436	47.8024	-11.7233	-291.958	47.6807	-50.805	-288.664	22.6038	-82.3557	-281.999	-7.52791	-71.6613	-350.866	19.5915	-65.6495	-366.029	18.8907	-88.6669	-379.508	17.4533	-113.725	-346.169	-11.6322	-66.2424	-366.46	-16.0669	-94.407	-381.474	-23.0054	-122.458	-329.431	-30.3018	-62.0319	-342.241	-46.1605	-86.0621	-354.589	-49.0907	-116.163	-303.637	-49.0029	-52.8787	-312.725	-64.2239	-74.293	-319.387	-75.5623	-91.0898	-307.308	-21.5766	-13.6125	-301.84	-15.9645	13.0263	-319.673	10.8758	-0.58977	
